PathFileType	4	(X/Y/Z)	D:\TRACE\spot_10-12-23\spot_arm_body_motion_1_8-platform.trc
DataRate	CameraRate	NumFrames	NumMarkers	Units	OrigDataRate	OrigDataStartFrame	OrigNumFrames
100.00	100.00	      25	5	mm	100.00	876	      7000
Frame#	Time	Left_Front			Right_Front			Left_Aft			Right_Aft			Post			
		X1	Y1	Z1	X2	Y2	Z2	X3	Y3	Z3	X4	Y4	Z4	X5	Y5	Z5	

876	8.750	-770.67133	16.19208	-650.28607	796.66614	14.33408	-625.96472	-702.05615	8.81682	488.07013	704.89838	6.40539	590.23047	17.11168	746.45093	-955.44159	
877	8.760	-771.36975	16.63569	-650.58185	795.91339	14.63829	-625.77606	-702.81061	8.61030	488.17484	703.92401	6.13865	590.35492	15.32807	747.09161	-954.94714	
878	8.770	-772.32690	17.08451	-650.26721	795.09137	15.05604	-625.74146	-703.97076	8.42989	488.30762	703.05743	5.95524	590.32678	14.55249	747.57910	-954.72791	
879	8.780	-773.23096	17.28247	-650.11102	794.00385	15.43269	-625.72260	-704.76581	8.21008	488.36838	702.07281	5.45158	590.43158	13.72124	747.91382	-954.35376	
880	8.790	-774.26111	17.40214	-650.11584	792.81183	15.74794	-625.62585	-705.72052	7.80996	488.47391	701.18549	5.06262	590.71039	12.55394	748.59082	-954.14569	
881	8.800	-775.28973	18.05078	-649.91876	791.93365	15.92691	-625.54590	-706.65887	7.37458	488.47293	700.20197	4.64622	590.79047	12.33640	749.01331	-953.90399	
882	8.810	-776.05389	18.77600	-649.82971	791.18268	16.40588	-625.39496	-707.45398	7.28162	488.57858	699.24390	4.59877	590.80487	11.42993	749.62000	-953.52466	
883	8.820	-776.97772	19.11761	-649.80847	790.23633	17.10019	-625.32642	-708.29980	7.26470	488.69788	698.04236	4.18132	590.46619	9.74416	750.60565	-953.13129	
884	8.830	-778.16730	19.65259	-649.90112	789.26227	17.71343	-625.32800	-709.47363	6.85385	488.78543	697.43988	3.89162	590.96198	8.31738	751.24915	-953.17175	
885	8.840	-779.12360	19.81754	-649.76965	788.16888	17.72992	-625.15845	-710.37915	6.32096	488.89716	696.41479	3.41642	591.18561	8.36365	751.74799	-952.11078	
886	8.850	-779.94537	20.33252	-649.47430	787.34210	17.84635	-625.01007	-711.42310	5.89845	489.02106	695.13409	2.75712	590.92426	7.45588	752.35577	-951.05151	
887	8.860	-780.67242	20.70760	-649.17554	786.46796	18.48570	-624.88812	-712.21063	5.94486	489.13412	694.44714	2.75120	591.46576	6.15308	753.08807	-950.25989	
888	8.870	-781.82922	21.52552	-649.33514	785.49109	19.37280	-624.80017	-713.01367	5.62375	489.30286	693.70929	2.50668	591.37878	5.40703	753.69611	-949.57574	
889	8.880	-782.76752	21.77999	-649.27142	784.49963	19.79490	-624.81702	-714.38037	5.32849	489.44672	692.59198	1.84909	591.38611	4.27122	754.20917	-948.77600	
890	8.890	-783.78723	22.03898	-649.09021	783.32007	19.67345	-624.74622	-715.17291	4.98302	489.32529	691.54254	1.55207	591.56427	3.33715	755.01038	-947.81500	
891	8.900	-784.71442	22.10722	-648.95715	782.36908	19.95961	-624.63031	-716.06506	4.50743	489.49216	690.74365	1.26486	591.52753	2.74333	755.40204	-947.00079	
892	8.910	-785.69714	22.63540	-648.87183	781.52448	20.57787	-624.40991	-717.07489	4.15895	489.54626	689.76825	1.08447	591.91339	1.31889	756.09100	-946.30469	
893	8.920	-786.69574	23.40517	-648.84277	780.64948	21.31347	-624.30536	-717.83606	4.03892	489.60806	688.80560	0.95380	591.97052	-14.32207	690.19891	-959.44415	
894	8.930	-787.47681	23.87515	-648.79297	779.57709	21.69003	-624.31116	-719.00372	3.92229	489.67340	687.90338	0.58865	591.90637	-0.16879	757.51184	-945.50916	
895	8.940	-788.65460	24.48501	-648.78943	778.58423	21.95181	-624.26715	-719.84705	3.49724	489.76773	686.81116	0.06790	591.97327	-1.38256	757.92236	-945.23785	
896	8.950	-789.74493	24.70822	-648.69867	777.63519	22.25031	-624.17004	-720.99341	2.99536	489.97430	685.63928	-0.52758	592.13879	-2.47484	758.49103	-944.89410	
897	8.960	-790.60651	24.89206	-648.41357	776.58948	22.82921	-624.04852	-721.97058	2.59946	490.04523	684.68585	-0.80998	592.23468	-3.66208	759.11475	-944.45239	
898	8.970	-791.38672	25.25212	-648.13861	775.77399	23.32332	-623.90405	-722.92023	2.47292	490.07681	683.93341	-0.96056	592.15173	-4.73267	759.68060	-944.27673	
899	8.980	-792.40399	25.98464	-648.41895	774.74512	23.84999	-623.82019	-723.95630	2.34087	490.04044	683.00970	-1.26993	592.21710	-5.45284	760.38812	-943.97522	
900	8.990	-793.42859	26.24800	-648.26080	773.82910	23.92514	-623.80377	-724.93317	2.07764	490.05347	682.12689	-1.51924	592.29767	-6.08604	760.80457	-943.67377	
